<svg width="40" height="40" viewBox="0 0 40 40" fill="none" xmlns="http://www.w3.org/2000/svg">
<path d="M36.8934 39.7675C38.5907 40.616 40.4737 39.0017 39.8922 37.1946L35.8091 24.5044C35.7288 24.2549 35.5814 24.0323 35.3831 23.861C35.1848 23.6896 34.9432 23.5761 34.6847 23.5329L17.7277 20.7057C16.932 20.5729 16.932 19.43 17.7277 19.2971L34.6833 16.4714C34.942 16.4284 35.1839 16.315 35.3825 16.1437C35.5811 15.9723 35.7287 15.7496 35.8091 15.4999L39.8922 2.80544C40.4737 0.998269 38.5921 -0.61604 36.8934 0.232544L1.18508 18.0828C-0.395032 18.8728 -0.395032 21.1257 1.18508 21.9172L36.8934 39.7675Z" fill="#43AE73"/>
</svg>
